# xmcd
#
# Track frame offsets:
# 150
# 14185
# 26341
# 39945
# 53275
# 67469
# 81226
# 94634
# 107004
# 122097
# 134821
# 146129
# 157768
# 172189
# 189500
# 202522
# 219729
# 233752
# 247188
# 264585
#
# Disc length: 3702 seconds
#
#
# Revision: 0
# Processed by: cddbd v1.5.2PL0 Copyright (c) Steve Scherf et al.
# Submitted via: FreeRIP 2.96 
#
DISCID=200e7414
DTITLE=Thaeme and Thiago - Thaeme and Thiago
DYEAR=2011
DGENRE=Country
TTITLE0=Aí que dó
TTITLE1=Pisa que eu gamo
TTITLE2=Apocalipse
TTITLE3=Na realidade
TTITLE4=Seu chamado
TTITLE5=Príncipe encantado
TTITLE6=Perdeu
TTITLE7=Barraco
TTITLE8=Eternidade
TTITLE9=Estou no limite
TTITLE10=Ele me deu o troco
TTITLE11=Socorro
TTITLE12=Não
TTITLE13=A casa
TTITLE14=Fim de noite
TTITLE15=06 de janeiro de 2003
TTITLE16=Pega eu
TTITLE17=To passando mal
TTITLE18=Copinho
TTITLE19=Coração sem noção (Canudinho)
EXTD=Ano 2011 - M. P. A.
EXTT0=
EXTT1=
EXTT2=
EXTT3=
EXTT4=
EXTT5=
EXTT6=
EXTT7=
EXTT8=
EXTT9=
EXTT10=
EXTT11=
EXTT12=
EXTT13=
EXTT14=
EXTT15=
EXTT16=
EXTT17=
EXTT18=
EXTT19=
PLAYORDER=
